<svg width="77" height="47" viewBox="0 0 77 47" fill="none" xmlns="http://www.w3.org/2000/svg">
<g clip-path="url(#clip0_3159_17005)">
<path opacity="0.48" d="M46.7959 10.3595V17.8521C46.7959 17.8636 46.7959 17.8762 46.797 17.8877V10.3154C46.7959 10.3291 46.7959 10.3448 46.7959 10.3595Z" fill="#231F20"/>
<path d="M20.1019 5.42574C19.5528 5.23575 18.9612 5.13184 18.3473 5.13184C16.9921 5.13184 15.7558 5.63358 14.8191 6.46072C13.7304 7.41907 13.0464 8.81618 13.0464 10.3697V17.8622C13.0464 18.7975 12.2923 19.5627 11.3545 19.5963V23.1011C12.6842 23.0843 13.8961 22.5857 14.8191 21.7722C15.7558 22.5994 16.9921 23.1011 18.3473 23.1011C19.7026 23.1011 20.9389 22.5994 21.8746 21.7722C21.95 21.7061 22.0233 21.6368 22.0944 21.5665C23.0535 20.6187 23.6472 19.3087 23.6472 17.8622V10.3697C23.6472 8.08561 22.1667 6.14162 20.1019 5.42574ZM20.1019 17.8612C20.1019 18.8174 19.3149 19.5963 18.3473 19.5963C17.3798 19.5963 16.5917 18.8174 16.5917 17.8612V10.3686C16.5917 9.41239 17.3787 8.63458 18.3473 8.63458C19.316 8.63458 20.1019 9.41239 20.1019 10.3686V17.8612Z" fill="#25A0D5"/>
<path d="M41.8933 30.4967C42.4063 30.3193 42.9575 30.2217 43.5311 30.2217C44.796 30.2217 45.9484 30.6898 46.8236 31.4613C47.8389 32.3557 48.4773 33.6593 48.4773 35.1079V42.0976C48.4773 42.9699 49.1804 43.6837 50.0566 43.7162V46.9859C48.8161 46.9702 47.6849 46.5052 46.8236 45.7463C45.9495 46.5178 44.796 46.9859 43.5311 46.9859C42.2661 46.9859 41.1137 46.5178 40.2396 45.7463C40.1695 45.6844 40.1005 45.6203 40.0346 45.5542C39.1393 44.6693 38.5859 43.4475 38.5859 42.0976V35.1079C38.5859 32.9771 39.9677 31.1632 41.8933 30.4956V30.4967ZM41.8933 42.0987C41.8933 42.9909 42.6272 43.7183 43.5311 43.7183C44.4349 43.7183 45.1699 42.992 45.1699 42.0987V35.1089C45.1699 34.2167 44.436 33.4903 43.5311 33.4903C42.6262 33.4903 41.8933 34.2157 41.8933 35.1089V42.0987Z" fill="#25A0D5"/>
<path d="M69.9756 35.1216V46.9997H66.6682V35.1216C66.6682 34.2294 65.9343 33.503 65.0304 33.503C64.1266 33.503 63.3916 34.2284 63.3916 35.1216V46.9997H60.0715V35.1227C60.0715 34.2305 59.3376 33.503 58.4337 33.503C57.5299 33.503 56.7949 34.2294 56.7949 35.1227V46.9997H53.4875V35.1227C53.4875 34.2504 52.7844 33.5366 51.9082 33.5041V30.2344C53.1487 30.2501 54.2799 30.7151 55.1412 31.474C56.0153 30.7025 57.1688 30.2344 58.4337 30.2344C59.6987 30.2344 60.8511 30.7025 61.7252 31.474C61.7273 31.4761 61.7284 31.4772 61.7305 31.4793C61.7326 31.4782 61.7347 31.4761 61.7369 31.474C62.611 30.7025 63.7644 30.2344 65.0294 30.2344C65.6029 30.2344 66.1541 30.3309 66.6671 30.5094C68.5927 31.177 69.9745 32.9908 69.9745 35.1216H69.9756Z" fill="#25A0D5"/>
<path d="M36.7304 35.1216V46.9997H33.4231V35.1216C33.4231 34.2294 32.6892 33.503 31.7853 33.503C30.8815 33.503 30.1465 34.2284 30.1465 35.1216V46.9997H26.8264V35.1227C26.8264 34.2305 26.0925 33.503 25.1886 33.503C24.2848 33.503 23.5498 34.2294 23.5498 35.1227V46.9997H20.2424V35.1227C20.2424 34.2504 19.5393 33.5366 18.6631 33.5041V30.2344C19.9036 30.2501 21.0348 30.7151 21.8961 31.474C22.7702 30.7025 23.9237 30.2344 25.1886 30.2344C26.4536 30.2344 27.606 30.7025 28.4801 31.474C28.4822 31.4761 28.4832 31.4772 28.4854 31.4793C28.4875 31.4782 28.4896 31.4761 28.4917 31.474C29.3659 30.7025 30.5193 30.2344 31.7842 30.2344C32.3578 30.2344 32.909 30.3309 33.422 30.5094C35.3476 31.177 36.7294 32.9908 36.7294 35.1216H36.7304Z" fill="#25A0D5"/>
<path opacity="0.49" d="M43.251 10.3591V17.8853C43.252 17.8769 43.252 17.8706 43.252 17.8622V10.3066C43.251 10.3245 43.251 10.3413 43.251 10.3591Z" fill="#231F20"/>
<path d="M76.7359 3.61401C76.0402 1.52097 74.0477 0.0104967 71.6994 0.0104967C70.3495 0.0104967 69.1196 0.50804 68.1839 1.32888C67.1026 2.27568 66.4144 3.65495 66.3985 5.19271C66.3995 5.19481 66.3995 5.19691 66.3985 5.20111C66.3995 5.21056 66.3995 5.22001 66.3995 5.22945V17.8517C66.3995 17.8643 66.3995 17.8769 66.3985 17.8906C66.3995 17.8916 66.3995 17.8927 66.3985 17.8937C66.3762 18.8311 65.5977 19.5868 64.6439 19.5868H55.6097C54.6421 19.5868 53.854 18.808 53.854 17.8517V10.3592C53.854 8.07511 52.3735 6.13007 50.3088 5.4142C49.7597 5.2242 49.1681 5.12029 48.5531 5.12029C47.9382 5.12029 47.3476 5.22316 46.7996 5.4142C46.7975 5.41524 46.7953 5.41524 46.7921 5.41629C44.7455 6.12797 43.2755 8.04572 43.2543 10.3067V17.8622C43.2543 17.8706 43.2543 17.8769 43.2532 17.8853C43.2416 18.8311 42.4577 19.5973 41.4986 19.5973H32.4644C31.4969 19.5973 30.7088 18.8185 30.7088 17.8622V5.2389C30.7088 3.68539 30.0237 2.28828 28.9362 1.32888C27.9983 0.503841 26.7642 0.00209934 25.4121 0V3.5038C26.3765 3.508 27.1603 4.28475 27.1603 5.2389V17.8612C27.1603 19.4147 27.8443 20.8118 28.933 21.7712C29.8687 22.5983 31.106 23.1001 32.4613 23.1001H41.4955C42.8528 23.1001 44.0912 22.5952 45.0301 21.7649C45.9648 22.5899 47.1989 23.0896 48.551 23.0896C49.903 23.0896 51.1436 22.5878 52.0793 21.7607C53.015 22.5878 54.2523 23.0896 55.6076 23.0896H64.6418C65.9906 23.0896 67.2227 22.591 68.1584 21.7712C69.2417 20.8202 69.9289 19.4388 69.9427 17.8979V17.8895C69.9416 17.8822 69.9416 17.8769 69.9416 17.8696V5.2494C69.9416 5.24205 69.9416 5.23575 69.9427 5.2284V5.21056C69.9629 4.27005 70.7425 3.51324 71.6973 3.51324C72.6521 3.51324 73.4529 4.29105 73.4529 5.24835V17.8696C73.4529 17.9095 73.4519 17.9493 73.4487 17.9871V23.099H76.994V8.46033C76.994 8.42045 76.995 8.38056 76.9982 8.34277V5.25045C76.9982 4.67943 76.9058 4.1294 76.7338 3.61401H76.7359ZM50.3077 17.8517C50.3077 18.808 49.5207 19.5868 48.552 19.5868C47.5834 19.5868 46.8176 18.8279 46.7985 17.8874C46.7975 17.8759 46.7975 17.8633 46.7975 17.8517V10.3592C46.7975 10.3445 46.7975 10.3287 46.7985 10.3151C46.8219 9.3788 47.5993 8.62408 48.552 8.62408C49.5047 8.62408 50.3077 9.40294 50.3077 10.3592V17.8517Z" fill="#25A0D5"/>
<path d="M16.8107 43.7314V47.0001C15.549 46.999 14.3987 46.5309 13.5267 45.7604C12.5124 44.8661 11.873 43.5613 11.873 42.1138V25.4482H15.1804V42.1138C15.1804 43.0029 15.9111 43.7282 16.8107 43.7324V43.7314Z" fill="#25A0D5"/>
<path d="M75.1774 26.6496C75.1774 27.2049 75.6395 27.6573 76.2077 27.6573H77V29.3724H76.2077C75.4387 29.3724 74.743 29.068 74.2385 28.5747C73.7351 28.0824 73.4229 27.4022 73.4229 26.6496C73.4229 25.1465 74.6698 23.9268 76.2077 23.9268H77V25.6419H76.2077C75.6395 25.6419 75.1774 26.0943 75.1774 26.6496Z" fill="#25A0D5"/>
<path d="M3.52192 24.797V31.5957H7.38902V35.0764H3.52192V41.7838C3.52192 42.7306 4.30044 43.5032 5.25845 43.5063H10.0177V46.987H5.25845C3.91596 46.986 2.69029 46.4874 1.76096 45.6666C0.680805 44.7145 0 43.3248 0 41.7838V24.797C0 23.254 0.680805 21.8674 1.76096 20.9143C2.68923 20.0924 3.91489 19.5959 5.25845 19.5928H10.0177V23.0735H5.25845C4.30044 23.0798 3.52192 23.8513 3.52192 24.797Z" fill="#25A0D5"/>
</g>
<defs>
<clipPath id="clip0_3159_17005">
<rect width="77" height="47" fill="white"/>
</clipPath>
</defs>
</svg>
